<svg width="213" height="177" viewBox="0 0 213 177" fill="none" xmlns="http://www.w3.org/2000/svg">
<path d="M104.312 57.0559C88.3122 57.0559 75.261 70.7141 75.261 87.5375C75.261 104.318 88.2689 118.019 104.312 118.019C120.311 118.019 133.363 104.361 133.363 87.5375C133.363 70.7574 120.311 57.0559 104.312 57.0559V57.0559Z" fill="black"/>
<path d="M104.312 135.71C78.5564 135.71 57.5704 114.117 57.5704 87.5375C57.5704 60.9582 78.5564 39.3652 104.312 39.3652C130.067 39.3652 151.053 60.9582 151.053 87.5375C151.053 114.117 130.067 135.71 104.312 135.71V135.71ZM211.106 82.8547C183.443 38.4547 146.154 14 106.22 14C66.2856 14 28.9966 38.4547 1.3333 82.8547C-0.444434 85.7164 -0.444434 89.3586 1.3333 92.2203C28.9966 136.62 66.2856 161.075 106.22 161.075C146.154 161.075 183.399 136.62 211.106 92.2203C212.884 89.3586 212.884 85.7164 211.106 82.8547Z" fill="black"/>
<rect x="28.5398" y="167.515" width="218.527" height="13.99" transform="rotate(-50 28.5398 167.515)" fill="black"/>
</svg>
